<mxfile host="app.diagrams.net" agent="Mozilla/5.0 (X11; Linux x86_64) AppleWebKit/537.36 (KHTML, like Gecko) Chrome/141.0.0.0 Safari/537.36" version="28.2.7">
  <diagram name="Page-1" id="8k_IQ7ZC2iZhwIiWpuDg">
    <mxGraphModel dx="1386" dy="707" grid="1" gridSize="10" guides="1" tooltips="1" connect="1" arrows="1" fold="1" page="1" pageScale="1" pageWidth="850" pageHeight="1100" math="0" shadow="0">
      <root>
        <mxCell id="0" />
        <mxCell id="1" parent="0" />
        <mxCell id="kI4JsJNKGlMF9oi-61GH-1" value=":Clock" style="shape=umlLifeline;perimeter=lifelinePerimeter;whiteSpace=wrap;html=1;container=1;dropTarget=0;collapsible=0;recursiveResize=0;outlineConnect=0;portConstraint=eastwest;newEdgeStyle={&quot;curved&quot;:0,&quot;rounded&quot;:0};" vertex="1" parent="1">
          <mxGeometry x="190" y="220" width="100" height="630" as="geometry" />
        </mxCell>
        <mxCell id="kI4JsJNKGlMF9oi-61GH-23" value="" style="html=1;points=[[0,0,0,0,5],[0,1,0,0,-5],[1,0,0,0,5],[1,1,0,0,-5]];perimeter=orthogonalPerimeter;outlineConnect=0;targetShapes=umlLifeline;portConstraint=eastwest;newEdgeStyle={&quot;curved&quot;:0,&quot;rounded&quot;:0};" vertex="1" parent="kI4JsJNKGlMF9oi-61GH-1">
          <mxGeometry x="45" y="70" width="10" height="30" as="geometry" />
        </mxCell>
        <mxCell id="kI4JsJNKGlMF9oi-61GH-2" value=":Scheduler" style="shape=umlLifeline;perimeter=lifelinePerimeter;whiteSpace=wrap;html=1;container=1;dropTarget=0;collapsible=0;recursiveResize=0;outlineConnect=0;portConstraint=eastwest;newEdgeStyle={&quot;curved&quot;:0,&quot;rounded&quot;:0};" vertex="1" parent="1">
          <mxGeometry x="430" y="220" width="100" height="640" as="geometry" />
        </mxCell>
        <mxCell id="kI4JsJNKGlMF9oi-61GH-26" value="" style="html=1;points=[[0,0,0,0,5],[0,1,0,0,-5],[1,0,0,0,5],[1,1,0,0,-5]];perimeter=orthogonalPerimeter;outlineConnect=0;targetShapes=umlLifeline;portConstraint=eastwest;newEdgeStyle={&quot;curved&quot;:0,&quot;rounded&quot;:0};" vertex="1" parent="kI4JsJNKGlMF9oi-61GH-2">
          <mxGeometry x="45" y="80" width="10" height="500" as="geometry" />
        </mxCell>
        <mxCell id="kI4JsJNKGlMF9oi-61GH-4" value=":WashingManager" style="shape=umlLifeline;perimeter=lifelinePerimeter;whiteSpace=wrap;html=1;container=1;dropTarget=0;collapsible=0;recursiveResize=0;outlineConnect=0;portConstraint=eastwest;newEdgeStyle={&quot;curved&quot;:0,&quot;rounded&quot;:0};" vertex="1" parent="1">
          <mxGeometry x="650" y="221" width="110" height="629" as="geometry" />
        </mxCell>
        <mxCell id="kI4JsJNKGlMF9oi-61GH-51" value="" style="html=1;points=[[0,0,0,0,5],[0,1,0,0,-5],[1,0,0,0,5],[1,1,0,0,-5]];perimeter=orthogonalPerimeter;outlineConnect=0;targetShapes=umlLifeline;portConstraint=eastwest;newEdgeStyle={&quot;curved&quot;:0,&quot;rounded&quot;:0};" vertex="1" parent="kI4JsJNKGlMF9oi-61GH-4">
          <mxGeometry x="50" y="209" width="10" height="371" as="geometry" />
        </mxCell>
        <mxCell id="kI4JsJNKGlMF9oi-61GH-5" value=":Lavatrice" style="shape=umlLifeline;perimeter=lifelinePerimeter;whiteSpace=wrap;html=1;container=1;dropTarget=0;collapsible=0;recursiveResize=0;outlineConnect=0;portConstraint=eastwest;newEdgeStyle={&quot;curved&quot;:0,&quot;rounded&quot;:0};" vertex="1" parent="1">
          <mxGeometry x="900" y="220" width="100" height="620" as="geometry" />
        </mxCell>
        <mxCell id="kI4JsJNKGlMF9oi-61GH-6" value="" style="html=1;verticalAlign=bottom;labelBackgroundColor=none;endArrow=open;endFill=0;rounded=0;" edge="1" parent="1">
          <mxGeometry width="160" relative="1" as="geometry">
            <mxPoint x="239.5" y="304" as="sourcePoint" />
            <mxPoint x="479.5" y="304" as="targetPoint" />
          </mxGeometry>
        </mxCell>
        <mxCell id="kI4JsJNKGlMF9oi-61GH-7" value="onTick(DateTime)" style="edgeLabel;html=1;align=center;verticalAlign=middle;resizable=0;points=[];" vertex="1" connectable="0" parent="kI4JsJNKGlMF9oi-61GH-6">
          <mxGeometry x="-0.0292" y="-2" relative="1" as="geometry">
            <mxPoint x="1" y="-18" as="offset" />
          </mxGeometry>
        </mxCell>
        <mxCell id="kI4JsJNKGlMF9oi-61GH-10" value="Alt" style="shape=umlFrame;whiteSpace=wrap;html=1;pointerEvents=0;recursiveResize=0;container=1;collapsible=0;width=170;" vertex="1" parent="1">
          <mxGeometry x="290" y="340" width="720" height="470" as="geometry" />
        </mxCell>
        <mxCell id="kI4JsJNKGlMF9oi-61GH-11" value="[schedulatoInScadenza]" style="text;html=1;" vertex="1" parent="kI4JsJNKGlMF9oi-61GH-10">
          <mxGeometry width="100" height="20" relative="1" as="geometry">
            <mxPoint x="20" y="40" as="offset" />
          </mxGeometry>
        </mxCell>
        <mxCell id="kI4JsJNKGlMF9oi-61GH-50" value="" style="html=1;points=[[0,0,0,0,5],[0,1,0,0,-5],[1,0,0,0,5],[1,1,0,0,-5]];perimeter=orthogonalPerimeter;outlineConnect=0;targetShapes=umlLifeline;portConstraint=eastwest;newEdgeStyle={&quot;curved&quot;:0,&quot;rounded&quot;:0};" vertex="1" parent="kI4JsJNKGlMF9oi-61GH-10">
          <mxGeometry x="655" y="150" width="10" height="270" as="geometry" />
        </mxCell>
        <mxCell id="kI4JsJNKGlMF9oi-61GH-13" value="" style="html=1;verticalAlign=bottom;labelBackgroundColor=none;endArrow=block;endFill=1;rounded=0;" edge="1" parent="1">
          <mxGeometry width="160" relative="1" as="geometry">
            <mxPoint x="479.5" y="381" as="sourcePoint" />
            <mxPoint x="479.5" y="402" as="targetPoint" />
            <Array as="points">
              <mxPoint x="530" y="382" />
              <mxPoint x="530" y="402" />
            </Array>
          </mxGeometry>
        </mxCell>
        <mxCell id="kI4JsJNKGlMF9oi-61GH-14" value="avviaCiclo(piano)" style="edgeLabel;html=1;align=center;verticalAlign=middle;resizable=0;points=[];" vertex="1" connectable="0" parent="kI4JsJNKGlMF9oi-61GH-13">
          <mxGeometry x="-0.0292" y="-2" relative="1" as="geometry">
            <mxPoint x="1" y="-18" as="offset" />
          </mxGeometry>
        </mxCell>
        <mxCell id="kI4JsJNKGlMF9oi-61GH-15" value="" style="html=1;verticalAlign=bottom;labelBackgroundColor=none;endArrow=block;endFill=1;rounded=0;" edge="1" parent="1">
          <mxGeometry width="160" relative="1" as="geometry">
            <mxPoint x="710" y="453" as="sourcePoint" />
            <mxPoint x="704.5" y="473" as="targetPoint" />
            <Array as="points">
              <mxPoint x="760" y="453" />
              <mxPoint x="760" y="473" />
            </Array>
          </mxGeometry>
        </mxCell>
        <mxCell id="kI4JsJNKGlMF9oi-61GH-52" value="aggiornaStato()" style="edgeLabel;html=1;align=center;verticalAlign=middle;resizable=0;points=[];" vertex="1" connectable="0" parent="kI4JsJNKGlMF9oi-61GH-15">
          <mxGeometry x="-0.3625" y="1" relative="1" as="geometry">
            <mxPoint x="20" y="-12" as="offset" />
          </mxGeometry>
        </mxCell>
        <mxCell id="kI4JsJNKGlMF9oi-61GH-18" value="" style="html=1;verticalAlign=bottom;labelBackgroundColor=none;endArrow=classic;endFill=1;rounded=0;" edge="1" parent="1">
          <mxGeometry width="160" relative="1" as="geometry">
            <mxPoint x="479.5" y="432" as="sourcePoint" />
            <mxPoint x="704.5" y="432" as="targetPoint" />
          </mxGeometry>
        </mxCell>
        <mxCell id="kI4JsJNKGlMF9oi-61GH-19" value="avviaLavaggio(piano)" style="edgeLabel;html=1;align=center;verticalAlign=middle;resizable=0;points=[];" vertex="1" connectable="0" parent="kI4JsJNKGlMF9oi-61GH-18">
          <mxGeometry x="-0.0292" y="-2" relative="1" as="geometry">
            <mxPoint x="1" y="-18" as="offset" />
          </mxGeometry>
        </mxCell>
        <mxCell id="kI4JsJNKGlMF9oi-61GH-29" value="" style="html=1;verticalAlign=bottom;labelBackgroundColor=none;endArrow=open;endFill=0;rounded=0;" edge="1" parent="1">
          <mxGeometry width="160" relative="1" as="geometry">
            <mxPoint x="704.5" y="492" as="sourcePoint" />
            <mxPoint x="949.5" y="492" as="targetPoint" />
          </mxGeometry>
        </mxCell>
        <mxCell id="kI4JsJNKGlMF9oi-61GH-30" value="apriValvolaAcqua()" style="edgeLabel;html=1;align=center;verticalAlign=middle;resizable=0;points=[];" vertex="1" connectable="0" parent="kI4JsJNKGlMF9oi-61GH-29">
          <mxGeometry x="-0.0292" y="-2" relative="1" as="geometry">
            <mxPoint x="1" y="-18" as="offset" />
          </mxGeometry>
        </mxCell>
        <mxCell id="kI4JsJNKGlMF9oi-61GH-31" value="" style="html=1;verticalAlign=bottom;labelBackgroundColor=none;endArrow=open;endFill=0;dashed=1;rounded=0;" edge="1" parent="1">
          <mxGeometry width="160" relative="1" as="geometry">
            <mxPoint x="949.5" y="516" as="sourcePoint" />
            <mxPoint x="704.5" y="516" as="targetPoint" />
          </mxGeometry>
        </mxCell>
        <mxCell id="kI4JsJNKGlMF9oi-61GH-32" value="" style="html=1;verticalAlign=bottom;labelBackgroundColor=none;endArrow=open;endFill=0;rounded=0;" edge="1" parent="1">
          <mxGeometry width="160" relative="1" as="geometry">
            <mxPoint x="704.5" y="548" as="sourcePoint" />
            <mxPoint x="949.5" y="548" as="targetPoint" />
          </mxGeometry>
        </mxCell>
        <mxCell id="kI4JsJNKGlMF9oi-61GH-33" value="chiudiValvolaAcqua()" style="edgeLabel;html=1;align=center;verticalAlign=middle;resizable=0;points=[];" vertex="1" connectable="0" parent="kI4JsJNKGlMF9oi-61GH-32">
          <mxGeometry x="-0.0292" y="-2" relative="1" as="geometry">
            <mxPoint x="1" y="-18" as="offset" />
          </mxGeometry>
        </mxCell>
        <mxCell id="kI4JsJNKGlMF9oi-61GH-35" value="" style="html=1;verticalAlign=bottom;labelBackgroundColor=none;endArrow=open;endFill=0;dashed=1;rounded=0;" edge="1" parent="1">
          <mxGeometry width="160" relative="1" as="geometry">
            <mxPoint x="949.5" y="574" as="sourcePoint" />
            <mxPoint x="704.5" y="574" as="targetPoint" />
          </mxGeometry>
        </mxCell>
        <mxCell id="kI4JsJNKGlMF9oi-61GH-36" value="" style="html=1;verticalAlign=bottom;labelBackgroundColor=none;endArrow=open;endFill=0;rounded=0;" edge="1" parent="1">
          <mxGeometry width="160" relative="1" as="geometry">
            <mxPoint x="704.5" y="602" as="sourcePoint" />
            <mxPoint x="950" y="602" as="targetPoint" />
          </mxGeometry>
        </mxCell>
        <mxCell id="kI4JsJNKGlMF9oi-61GH-37" value="attivaCentrifuga()" style="edgeLabel;html=1;align=center;verticalAlign=middle;resizable=0;points=[];" vertex="1" connectable="0" parent="kI4JsJNKGlMF9oi-61GH-36">
          <mxGeometry x="-0.0292" y="-2" relative="1" as="geometry">
            <mxPoint x="1" y="-18" as="offset" />
          </mxGeometry>
        </mxCell>
        <mxCell id="kI4JsJNKGlMF9oi-61GH-38" value="" style="html=1;verticalAlign=bottom;labelBackgroundColor=none;endArrow=open;endFill=0;dashed=1;rounded=0;" edge="1" parent="1">
          <mxGeometry width="160" relative="1" as="geometry">
            <mxPoint x="949.5" y="627" as="sourcePoint" />
            <mxPoint x="704.5" y="627" as="targetPoint" />
          </mxGeometry>
        </mxCell>
        <mxCell id="kI4JsJNKGlMF9oi-61GH-39" value="" style="html=1;verticalAlign=bottom;labelBackgroundColor=none;endArrow=open;endFill=0;rounded=0;" edge="1" parent="1">
          <mxGeometry width="160" relative="1" as="geometry">
            <mxPoint x="704.5" y="657" as="sourcePoint" />
            <mxPoint x="949.5" y="657" as="targetPoint" />
          </mxGeometry>
        </mxCell>
        <mxCell id="kI4JsJNKGlMF9oi-61GH-40" value="avviaMotore()" style="edgeLabel;html=1;align=center;verticalAlign=middle;resizable=0;points=[];" vertex="1" connectable="0" parent="kI4JsJNKGlMF9oi-61GH-39">
          <mxGeometry x="-0.0292" y="-2" relative="1" as="geometry">
            <mxPoint x="1" y="-18" as="offset" />
          </mxGeometry>
        </mxCell>
        <mxCell id="kI4JsJNKGlMF9oi-61GH-41" value="" style="html=1;verticalAlign=bottom;labelBackgroundColor=none;endArrow=open;endFill=0;rounded=0;" edge="1" parent="1">
          <mxGeometry width="160" relative="1" as="geometry">
            <mxPoint x="704.5" y="714" as="sourcePoint" />
            <mxPoint x="949.5" y="714" as="targetPoint" />
          </mxGeometry>
        </mxCell>
        <mxCell id="kI4JsJNKGlMF9oi-61GH-42" value="fermaMotore()" style="edgeLabel;html=1;align=center;verticalAlign=middle;resizable=0;points=[];" vertex="1" connectable="0" parent="kI4JsJNKGlMF9oi-61GH-41">
          <mxGeometry x="-0.0292" y="-2" relative="1" as="geometry">
            <mxPoint x="1" y="-18" as="offset" />
          </mxGeometry>
        </mxCell>
        <mxCell id="kI4JsJNKGlMF9oi-61GH-43" value="" style="html=1;verticalAlign=bottom;labelBackgroundColor=none;endArrow=open;endFill=0;dashed=1;rounded=0;" edge="1" parent="1">
          <mxGeometry width="160" relative="1" as="geometry">
            <mxPoint x="949.5" y="678" as="sourcePoint" />
            <mxPoint x="704.5" y="678" as="targetPoint" />
          </mxGeometry>
        </mxCell>
        <mxCell id="kI4JsJNKGlMF9oi-61GH-44" value="" style="html=1;verticalAlign=bottom;labelBackgroundColor=none;endArrow=open;endFill=0;dashed=1;rounded=0;" edge="1" parent="1">
          <mxGeometry width="160" relative="1" as="geometry">
            <mxPoint x="949.5" y="742" as="sourcePoint" />
            <mxPoint x="704.5" y="742" as="targetPoint" />
          </mxGeometry>
        </mxCell>
        <mxCell id="kI4JsJNKGlMF9oi-61GH-45" value=". . ." style="text;html=1;whiteSpace=wrap;strokeColor=none;fillColor=none;align=center;verticalAlign=middle;rounded=0;" vertex="1" parent="1">
          <mxGeometry x="790" y="752" width="60" height="30" as="geometry" />
        </mxCell>
        <mxCell id="kI4JsJNKGlMF9oi-61GH-46" value="" style="html=1;verticalAlign=bottom;labelBackgroundColor=none;endArrow=open;endFill=0;dashed=1;rounded=0;" edge="1" parent="1">
          <mxGeometry width="160" relative="1" as="geometry">
            <mxPoint x="704.5" y="794" as="sourcePoint" />
            <mxPoint x="479.5" y="794" as="targetPoint" />
          </mxGeometry>
        </mxCell>
        <mxCell id="kI4JsJNKGlMF9oi-61GH-53" value="" style="html=1;verticalAlign=bottom;labelBackgroundColor=none;endArrow=block;endFill=1;rounded=0;" edge="1" parent="1">
          <mxGeometry width="160" relative="1" as="geometry">
            <mxPoint x="709.5" y="765" as="sourcePoint" />
            <mxPoint x="704" y="785" as="targetPoint" />
            <Array as="points">
              <mxPoint x="759.5" y="765" />
              <mxPoint x="759.5" y="785" />
            </Array>
          </mxGeometry>
        </mxCell>
        <mxCell id="kI4JsJNKGlMF9oi-61GH-54" value="aggiornaStato()" style="edgeLabel;html=1;align=center;verticalAlign=middle;resizable=0;points=[];" vertex="1" connectable="0" parent="kI4JsJNKGlMF9oi-61GH-53">
          <mxGeometry x="-0.3625" y="1" relative="1" as="geometry">
            <mxPoint x="20" y="-12" as="offset" />
          </mxGeometry>
        </mxCell>
      </root>
    </mxGraphModel>
  </diagram>
</mxfile>
